<?xml version="1.0" encoding="UTF-8" standalone="no"?>
<!-- Created with Inkscape (http://www.inkscape.org/) -->

<svg
   xmlns:dc="http://purl.org/dc/elements/1.1/"
   xmlns:cc="http://creativecommons.org/ns#"
   xmlns:rdf="http://www.w3.org/1999/02/22-rdf-syntax-ns#"
   xmlns:svg="http://www.w3.org/2000/svg"
   xmlns="http://www.w3.org/2000/svg"
   xmlns:xlink="http://www.w3.org/1999/xlink"
   version="1.1"
   width="744.09448"
   height="1052.3622"
   id="svg2">
  <defs
     id="defs4">
    <pattern
       patternTransform="matrix(0.96785878,0,0,1,50.691291,25.253813)"
       id="pattern5375"
       xlink:href="#Wavywhite" />
    <pattern
       patternUnits="userSpaceOnUse"
       width="30.066020"
       height="5.1805778"
       id="Wavywhite">
      <path
         style="fill:white;stroke:none;"
         d="M 7.597,0.061 C 5.079,-0.187 2.656,0.302 -0.01,1.788 L -0.01,3.061 C 2.773,1.431 5.173,1.052 7.472,1.280 C 9.770,1.508 11.969,2.361 14.253,3.218 C 18.820,4.931 23.804,6.676 30.066,3.061 L 30.062,1.788 C 23.622,5.497 19.246,3.770 14.691,2.061 C 12.413,1.207 10.115,0.311 7.597,0.061 z "
         id="path5125" />
    </pattern>
  </defs>
  <metadata
     id="metadata7">
    <rdf:RDF>
      <cc:Work
         rdf:about="">
        <dc:format>image/svg+xml</dc:format>
        <dc:type
           rdf:resource="http://purl.org/dc/dcmitype/StillImage" />
        <dc:title></dc:title>
      </cc:Work>
    </rdf:RDF>
  </metadata>
  <g
     id="layer1">
    <rect
       width="246.37662"
       height="134.3503"
       x="138.68295"
       y="118.98122"
       id="rect5377"
       style="opacity:0.14473685;fill:#000000;fill-opacity:1;fill-rule:nonzero" />
    <path
       d="m 242.85714,163.79076 a 65.714287,60 0 1 1 -131.42857,0 65.714287,60 0 1 1 131.42857,0 z"
       transform="matrix(0.71493592,0,0,0.70537217,74.963383,65.934984)"
       id="path2993"
       style="fill:#501616;fill-opacity:1" />
    <rect
       width="304.18417"
       height="205.71428"
       x="117.05875"
       y="97.61599"
       id="rect2995"
       style="opacity:0.31578944;fill:url(#pattern5375);fill-opacity:1;fill-rule:nonzero" />
    <text
       x="255.52475"
       y="183.62386"
       transform="scale(0.98379814,1.0164687)"
       id="text2985"
       xml:space="preserve"
       style="font-size:39.3519249px;font-style:normal;font-variant:normal;font-weight:normal;font-stretch:normal;line-height:125%;letter-spacing:0px;word-spacing:0px;fill:#ffffff;fill-opacity:1;stroke:none;font-family:Oswald;-inkscape-font-specification:Oswald"><tspan
         x="255.52475"
         y="183.62386"
         id="tspan2987">AMANO</tspan></text>
    <text
       x="195.81483"
       y="211.39134"
       transform="scale(0.98379814,1.0164687)"
       id="text2989"
       xml:space="preserve"
       style="font-size:39.3519249px;font-style:normal;font-variant:normal;font-weight:normal;font-stretch:normal;line-height:125%;letter-spacing:0px;word-spacing:0px;fill:#ffffff;fill-opacity:1;stroke:none;font-family:Shlapak Script;-inkscape-font-specification:Shlapak Script"><tspan
         x="195.81483"
         y="211.39134"
         id="tspan2991"
         style="font-size:70.83346558px;fill:#ffffff">Dzjaku</tspan></text>
  </g>
</svg>
