<?xml version="1.0" encoding="UTF-8" standalone="no"?>
<!-- Created with Inkscape (http://www.inkscape.org/) -->

<svg
   xmlns:dc="http://purl.org/dc/elements/1.1/"
   xmlns:cc="http://creativecommons.org/ns#"
   xmlns:rdf="http://www.w3.org/1999/02/22-rdf-syntax-ns#"
   xmlns:svg="http://www.w3.org/2000/svg"
   xmlns="http://www.w3.org/2000/svg"
   xmlns:xlink="http://www.w3.org/1999/xlink"
   xmlns:sodipodi="http://sodipodi.sourceforge.net/DTD/sodipodi-0.dtd"
   xmlns:inkscape="http://www.inkscape.org/namespaces/inkscape"
   width="244.9557"
   height="176.72102"
   id="svg2"
   version="1.1"
   inkscape:version="0.48.4 r9939"
   sodipodi:docname="logo.svg">
  <defs
     id="defs4">
    <pattern
       inkscape:collect="always"
       xlink:href="#Wavywhite"
       id="pattern5375"
       patternTransform="matrix(1.4821183,0,0,1.8102264,226.54968,209.06066)" />
    <pattern
       inkscape:stockid="Wavy white"
       id="Wavywhite"
       height="5.1805778"
       width="30.066020"
       patternUnits="userSpaceOnUse"
       inkscape:collect="always">
      <path
         id="path5125"
         d="M 7.597,0.061 C 5.079,-0.187 2.656,0.302 -0.01,1.788 L -0.01,3.061 C 2.773,1.431 5.173,1.052 7.472,1.280 C 9.770,1.508 11.969,2.361 14.253,3.218 C 18.820,4.931 23.804,6.676 30.066,3.061 L 30.062,1.788 C 23.622,5.497 19.246,3.770 14.691,2.061 C 12.413,1.207 10.115,0.311 7.597,0.061 z "
         style="fill:white;stroke:none;" />
    </pattern>
  </defs>
  <sodipodi:namedview
     id="base"
     pagecolor="#ffffff"
     bordercolor="#666666"
     borderopacity="1.0"
     inkscape:pageopacity="0.0"
     inkscape:pageshadow="2"
     inkscape:zoom="0.98994949"
     inkscape:cx="100.10227"
     inkscape:cy="-105.62218"
     inkscape:document-units="px"
     inkscape:current-layer="layer1"
     showgrid="false"
     inkscape:window-width="1280"
     inkscape:window-height="917"
     inkscape:window-x="0"
     inkscape:window-y="25"
     inkscape:window-maximized="1"
     fit-margin-top="0"
     fit-margin-left="0"
     fit-margin-right="0"
     fit-margin-bottom="0" />
  <metadata
     id="metadata7">
    <rdf:RDF>
      <cc:Work
         rdf:about="">
        <dc:format>image/svg+xml</dc:format>
        <dc:type
           rdf:resource="http://purl.org/dc/dcmitype/StillImage" />
        <dc:title></dc:title>
      </cc:Work>
    </rdf:RDF>
  </metadata>
  <g
     inkscape:label="Layer 1"
     inkscape:groupmode="layer"
     id="layer1"
     transform="translate(18.932875,27.109457)">
    <rect
       style="opacity:0.42105264;fill:#000000;fill-opacity:1;fill-rule:nonzero"
       id="rect5377"
       width="244.9557"
       height="177.21931"
       x="-18.932875"
       y="-27.109457" />
    <path
       sodipodi:type="arc"
       style="opacity:0.42666668;fill:#7b133c;fill-opacity:0.94117647;stroke:none"
       id="path2993"
       sodipodi:cx="177.14285"
       sodipodi:cy="163.79076"
       sodipodi:rx="65.714287"
       sodipodi:ry="60"
       d="m 242.85714,163.79076 a 65.714287,60 0 1 1 -131.42857,0 65.714287,60 0 1 1 131.42857,0 z"
       transform="matrix(0.79368936,0,0,0.93044507,-100.95977,-100.59005)" />
    <rect
       style="opacity:0.31578944;fill:url(#pattern5375);fill-opacity:1;fill-rule:nonzero"
       id="rect2995"
       width="465.80859"
       height="372.38947"
       x="328.18063"
       y="340.05261" />
    <g
       transform="scale(0.9048466,1.1051597)"
       style="font-size:65.51909637px;font-style:normal;font-variant:normal;font-weight:normal;font-stretch:normal;line-height:125%;letter-spacing:0px;word-spacing:0px;fill:#ffffff;fill-opacity:1;stroke:none;font-family:Oswald;-inkscape-font-specification:Oswald"
       id="text2985" />
    <g
       transform="matrix(0.91781912,0,0,1.1355154,-0.34711104,-5.9961474)"
       style="font-size:65.51909637px;font-style:normal;font-variant:normal;font-weight:normal;font-stretch:normal;line-height:125%;letter-spacing:0px;word-spacing:0px;fill:#ffffff;fill-opacity:1;stroke:none;font-family:Shlapak Script;-inkscape-font-specification:Shlapak Script"
       id="text2989" />
    <g
       style="font-size:40px;font-style:normal;font-variant:normal;font-weight:normal;font-stretch:normal;line-height:125%;letter-spacing:0px;word-spacing:0px;fill:#ffffff;fill-opacity:1;stroke:none;font-family:Shlapak Script;-inkscape-font-specification:Shlapak Script"
       id="text5711"
       transform="matrix(0.72495751,0,0,0.72868439,-7.2019237,-11.481957)">
      <path
         id="path5905"
         style="font-size:14px;letter-spacing:5.88000011px;fill:#ffffff;font-family:Yanone Kaffeesatz;-inkscape-font-specification:Yanone Kaffeesatz"
         d="m 297.4974,182.74091 c 0,-1.26 -0.532,-1.708 -1.722,-1.708 -1.064,0 -1.904,0.224 -2.142,0.378 -0.112,0.07 -0.154,0.238 -0.154,0.378 0,0.168 0.028,0.42 0.154,0.658 0.406,-0.168 1.148,-0.322 1.862,-0.322 0.56,0 0.868,0.168 0.868,0.84 l 0,1.106 c -0.28,-0.14 -0.714,-0.182 -1.022,-0.182 -0.952,0 -1.876,0.35 -1.876,2.296 0,1.932 0.98,2.142 2.002,2.128 0.91,0 1.568,-0.252 1.946,-0.476 0.07,-1.064 0.084,-2.744 0.084,-4.354 l 0,-0.742 m -1.134,2.128 c 0,0.756 0,1.792 -0.042,2.268 -0.126,0.112 -0.434,0.224 -0.742,0.224 -0.56,0 -0.938,-0.168 -0.938,-1.204 0,-1.232 0.49,-1.428 1.064,-1.428 0.196,0 0.476,0.042 0.658,0.14 m -11.25929,-1.652 c -0.14,0.504 -0.434,0.714 -0.812,0.714 l -0.406,0 0,-2.758 c -1.106,0 -1.106,0 -1.106,0.196 l 0,6.804 c 1.106,0 1.106,0 1.106,-0.196 l 0,-3.052 0.35,0 c 0.63,0 0.91,0.35 1.05,1.302 l 0.364,1.932 c 0.252,0.028 0.476,0.042 0.7,0.042 0.392,0 0.462,-0.056 0.448,-0.238 l -0.364,-1.876 c -0.126,-0.854 -0.504,-1.484 -1.036,-1.75 0.294,-0.154 0.56,-0.462 0.728,-0.938 l 0.658,-1.974 c 0.014,-0.042 0.014,-0.084 0.014,-0.112 0,-0.126 -0.112,-0.154 -0.434,-0.154 -0.182,0 -0.42,0.014 -0.686,0.07 l -0.574,1.988 m -14.93057,4.956 c 0.938,0 1.008,-0.014 1.008,-0.154 l 0,-2.394 c 0.014,-0.21 0.014,-0.434 0.014,-0.658 0,-0.63 -0.014,-1.372 -0.056,-2.156 l 0.014,-0.014 c 0.266,0.728 0.7,2.03 0.756,2.226 l 0.588,1.596 0.476,0 c 0.07,0 0.112,-0.028 0.14,-0.07 l 0.588,-1.526 c 0.098,-0.252 0.616,-1.722 0.784,-2.268 -0.042,1.19 -0.07,2.128 -0.07,2.926 l 0,2.492 c 1.022,0 1.036,0 1.036,-0.154 l 0,-6.846 -1.064,0 c -0.154,0 -0.168,0.056 -0.224,0.154 l -0.924,2.674 c -0.154,0.49 -0.322,1.064 -0.392,1.33 0,0 -0.224,-0.714 -0.364,-1.078 l -1.092,-3.08 -1.008,0 c -0.21,0 -0.21,0.154 -0.21,0.154 l 0,6.846 m -8.75458,-0.952 c -0.854,0 -1.26,-0.392 -1.316,-1.904 0.7,0 2.016,-0.042 2.94,-0.224 0.112,-0.504 0.154,-1.19 0.154,-1.82 0,-1.498 -0.602,-2.24 -1.778,-2.24 -1.232,0 -2.478,0.50401 -2.478,4.004 0,2.744 0.938,3.276 2.24,3.276 1.05,0 1.932,-0.336 1.932,-0.77 0,-0.224 -0.028,-0.546 -0.098,-0.77 -0.476,0.28 -1.036,0.448 -1.596,0.448 m -0.126,-5.194 c 0.616,0 0.798,0.364 0.812,1.386 0,0.266 -0.014,0.588 -0.07,0.84 -0.49,0.14 -1.386,0.168 -1.932,0.154 0.098,-1.904 0.602,-2.38 1.19,-2.38 m -11.88294,1.89 0,-2.744 -2.394,0 c -0.224,0 -0.21,0.098 -0.21,0.98 l 1.526,0 0,6.02 1.512,0 c 1.232,-0.028 2.52,-0.336 2.52,-2.38 0,-1.54 -0.854,-1.876 -2.226,-1.876 l -0.728,0 m 0,3.346 0,-2.478 c 0.126,0 0.322,-0.014 0.56,-0.014 0.7,0 1.134,0.084 1.134,1.064 0,1.162 -0.462,1.442 -1.106,1.442 l -0.588,-0.014 m -8.92501,-5.6 c 0,-0.364 -0.518,-0.63 -1.176,-0.63 -1.148,0 -2.506,0.43401 -2.506,3.794 0,2.954 0.742,3.486 2.086,3.486 0.924,0 1.568,-0.336 1.568,-0.714 0,-0.182 -0.042,-0.364 -0.112,-0.616 -0.238,0.168 -0.658,0.322 -1.12,0.322 -0.854,0 -1.26,-0.49 -1.26,-2.464 0,-2.50599 0.756,-2.814 1.4,-2.814 0.392,0 0.77,0.14 0.994,0.266 0.098,-0.238 0.126,-0.476 0.126,-0.63 m -14.95133,3.01 c 0,3.15 0.77,3.64 2.198,3.64 1.498,0 2.31,-1.078 2.31,-3.668 0,-2.85599 -0.714,-3.612 -2.17,-3.612 -1.47,0 -2.338,1.07801 -2.338,3.64 m 1.232,0.028 c 0,-2.184 0.434,-2.716 1.064,-2.716 0.658,0 0.98,0.42 0.98,2.66 0,2.184 -0.434,2.716 -1.05,2.716 -0.644,0 -0.994,-0.35 -0.994,-2.66 m -8.85371,-2.548 1.274,0 c 0.238,0 0.252,-0.098 0.252,-0.98 l -3.934,0 c -0.252,0 -0.252,0.112 -0.252,0.98 l 1.54,0 0,6.02 c 1.134,0 1.12,0 1.12,-0.224 l 0,-5.796 m -13.46734,2.52 c 0,3.15 0.77,3.64 2.198,3.64 1.498,0 2.31,-1.078 2.31,-3.668 0,-2.85599 -0.714,-3.612 -2.17,-3.612 -1.47,0 -2.338,1.07801 -2.338,3.64 m 1.232,0.028 c 0,-2.184 0.434,-2.716 1.064,-2.716 0.658,0 0.98,0.42 0.98,2.66 0,2.184 -0.434,2.716 -1.05,2.716 -0.644,0 -0.994,-0.35 -0.994,-2.66 m -10.64941,-6.818 c -0.826,0 -1.008,0.028 -1.008,0.504 l 0,2.688 c -1.89,0.182 -2.604,1.316 -2.604,3.598 0,2.73 0.77,3.556 2.604,3.626 l 0,2.604 c 0.196,0.028 0.322,0.042 0.49,0.042 0.448,0 0.518,-0.098 0.518,-0.462 l 0,-2.198 c 1.904,-0.154 2.66,-1.19 2.66,-3.64 0,-2.43599 -0.728,-3.486 -2.66,-3.598 l 0,-3.164 m 0,4.102 c 1.26,0.126 1.526,0.91 1.526,2.66 0,1.722 -0.336,2.534 -1.526,2.716 l 0,-5.376 m -1.008,5.376 c -1.176,-0.154 -1.47,-0.924 -1.47,-2.646 0,-1.736 0.322,-2.534 1.47,-2.716 l 0,5.362 m -19.35018,-6.188 c -1.596,0 -2.478,0.616 -2.478,1.988 0,1.162 0.63,1.764 1.204,1.974 -0.546,0.28 -0.812,0.644 -0.952,1.274 l -0.392,1.778 c 0.252,0.028 0.476,0.042 0.714,0.042 0.434,0 0.462,-0.042 0.49,-0.238 l 0.322,-1.47 c 0.154,-0.742 0.434,-1.176 0.938,-1.176 l 0.602,0 0,2.59 c 0,0.238 0.028,0.238 1.12,0.238 l 0,-6.804 c 0,0 0,-0.196 -0.21,-0.196 l -1.358,0 m 0.448,3.22 c -0.252,0.014 -0.49,0.028 -0.742,0.028 -0.504,0 -0.966,-0.266 -0.966,-1.204 0,-0.812 0.35,-1.106 0.994,-1.106 0.252,0 0.476,0.014 0.714,0.028 l 0,2.254 m -9.82123,-1.652 c 0,-1.26 -0.532,-1.708 -1.722,-1.708 -1.064,0 -1.904,0.224 -2.142,0.378 -0.112,0.07 -0.154,0.238 -0.154,0.378 0,0.168 0.028,0.42 0.154,0.658 0.406,-0.168 1.148,-0.322 1.862,-0.322 0.56,0 0.868,0.168 0.868,0.84 l 0,1.106 c -0.28,-0.14 -0.714,-0.182 -1.022,-0.182 -0.952,0 -1.876,0.35 -1.876,2.296 0,1.932 0.98,2.142 2.002,2.128 0.91,0 1.568,-0.252 1.946,-0.476 0.07,-1.064 0.084,-2.744 0.084,-4.354 l 0,-0.742 m -1.134,2.128 c 0,0.756 0,1.792 -0.042,2.268 -0.126,0.112 -0.434,0.224 -0.742,0.224 -0.56,0 -0.938,-0.168 -0.938,-1.204 0,-1.232 0.49,-1.428 1.064,-1.428 0.196,0 0.476,0.042 0.658,0.14 m -9.91811,-3.696 c -1.12,0 -1.134,0 -1.134,0.224 l 0,2.786 -1.848,0 0,-3.01 c -1.176,0 -1.148,0 -1.148,0.224 l 0,6.776 c 1.162,0 1.148,0 1.148,-0.224 l 0,-2.786 1.848,0 0,3.01 c 1.162,0 1.134,0 1.134,-0.224 l 0,-6.776 m -13.92323,2.744 0,-2.744 c -1.03599,0 -1.092,0.042 -1.092,0.504 l 0,6.496 1.358,0 c 1.316,0 2.674,-0.266 2.674,-2.38 0,-1.54 -0.854,-1.876 -2.212,-1.876 l -0.728,0 m 0,3.346 0,-2.478 0.56,-0.014 c 0.7,0 1.134,0.084 1.134,1.064 0,1.162 -0.476,1.442 -1.12,1.442 l -0.574,-0.014 m -8.40612,-6.09 -2.422,0 c -0.924,0 -0.952,0.042 -0.966,0.322 -0.266,4.34 -0.406,5.824 -1.442,5.838 -0.014,0.098 -0.028,0.182 -0.028,0.252 0,0.462 0.252,0.644 0.616,0.644 1.232,0 1.666,-1.848 1.918,-6.104 l 1.176,0 0,6.048 c 1.19,0 1.148,0 1.148,-0.224 l 0,-6.776 m -11.24921,1.568 c 0,-1.26 -0.53201,-1.708 -1.722,-1.708 -1.064,0 -1.904,0.224 -2.142,0.378 -0.112,0.07 -0.154,0.238 -0.154,0.378 0,0.168 0.028,0.42 0.154,0.658 0.406,-0.168 1.148,-0.322 1.862,-0.322 0.56,0 0.868,0.168 0.868,0.84 l 0,1.106 c -0.28,-0.14 -0.714,-0.182 -1.022,-0.182 -0.952,0 -1.876,0.35 -1.876,2.296 0,1.932 0.98,2.142 2.002,2.128 0.91,0 1.568,-0.252 1.946,-0.476 0.07,-1.064 0.084,-2.744 0.084,-4.354 l 0,-0.742 m -1.134,2.128 c 0,0.756 0,1.792 -0.042,2.268 -0.126,0.112 -0.434,0.224 -0.742,0.224 -0.56,0 -0.938,-0.168 -0.938,-1.204 0,-1.232 0.49,-1.428 1.064,-1.428 0.196,0 0.476,0.042 0.658,0.14 m -9.91813,-3.696 c -1.12,0 -1.134,0 -1.134,0.224 l 0,2.786 -1.848,0 0,-3.01 c -1.176,0 -1.148,0 -1.148,0.224 l 0,6.776 c 1.162,0 1.148,0 1.148,-0.224 l 0,-2.786 1.848,0 0,3.01 c 1.162,0 1.134,0 1.134,-0.224 l 0,-6.776 m -15.623345,3.5 c 0,3.15 0.770002,3.64 2.198,3.64 1.497999,0 2.31,-1.078 2.31,-3.668 0,-2.85599 -0.714001,-3.612 -2.17,-3.612 -1.469998,0 -2.338,1.07801 -2.338,3.64 m 1.232,0.028 c 0,-2.184 0.434001,-2.716 1.064,-2.716 0.658,0 0.98,0.42 0.98,2.66 0,2.184 -0.434,2.716 -1.05,2.716 -0.643999,0 -0.994,-0.35 -0.994,-2.66 m -10.571528,-0.574 c -0.238,0.434 -0.644001,1.33 -0.952,2.016 -0.056,0.126 -0.098,0.238 -0.154,0.336 0.028,-0.224 0.056,-0.504 0.084,-0.77 0.056,-0.49 0.112,-0.994 0.112,-1.33 l 0,-3.206 c -0.937999,0 -1.064,0 -1.064,0.21 l 0,6.79 c 0.811999,0 0.868,0 1.008,-0.266 l 1.344,-2.674 c 0.265999,-0.504 0.84,-1.82 1.134,-2.478 -0.014,0.322 -0.056,0.714 -0.098,1.12 -0.056,0.476 -0.098,0.938 -0.098,1.26 l 0,3.038 c 1.021999,0 1.05,-0.014 1.05,-0.21 l 0,-6.79 c -0.825999,0 -0.882,0.014 -1.008,0.266 l -1.358,2.688 m -8.827005,-2.464 c 0,-0.364 -0.518001,-0.63 -1.176,-0.63 -1.147999,0 -2.506,0.43401 -2.506,3.794 0,2.954 0.742001,3.486 2.086,3.486 0.923999,0 1.568,-0.336 1.568,-0.714 0,-0.182 -0.042,-0.364 -0.112,-0.616 -0.238,0.168 -0.658001,0.322 -1.12,0.322 -0.853999,0 -1.26,-0.49 -1.26,-2.464 0,-2.50599 0.756001,-2.814 1.4,-2.814 0.391999,0 0.77,0.14 0.994,0.266 0.098,-0.238 0.126,-0.476 0.126,-0.63 m -10.073017,0 c 0,-0.364 -0.518001,-0.63 -1.176,-0.63 -1.147999,0 -2.506,0.43401 -2.506,3.794 0,2.954 0.742001,3.486 2.086,3.486 0.923999,0 1.568,-0.336 1.568,-0.714 0,-0.182 -0.042,-0.364 -0.112,-0.616 -0.238,0.168 -0.658001,0.322 -1.12,0.322 -0.853999,0 -1.26,-0.49 -1.26,-2.464 0,-2.50599 0.756,-2.814 1.4,-2.814 0.391999,0 0.77,0.14 0.994,0.266 0.098,-0.238 0.126,-0.476 0.126,-0.63 m -12.156595,5.558 c -0.853999,0 -1.26,-0.392 -1.316,-1.904 0.699999,0 2.016001,-0.042 2.94,-0.224 0.112,-0.504 0.154,-1.19 0.154,-1.82 0,-1.498 -0.602001,-2.24 -1.778,-2.24 -1.231999,0 -2.478,0.50401 -2.478,4.004 0,2.744 0.938001,3.276 2.24,3.276 1.049999,0 1.932,-0.336 1.932,-0.77 0,-0.224 -0.028,-0.546 -0.098,-0.77 -0.476,0.28 -1.036001,0.448 -1.596,0.448 m -0.126,-5.194 c 0.615999,0 0.798,0.364 0.812,1.386 0,0.266 -0.014,0.588 -0.07,0.84 -0.49,0.14 -1.386001,0.168 -1.932,0.154 0.098,-1.904 0.602001,-2.38 1.19,-2.38 m -11.755407,-4.144 c -0.826,0 -1.008,0.028 -1.008,0.504 l 0,2.688 c -1.889999,0.182 -2.604,1.316 -2.604,3.598 0,2.73 0.770001,3.556 2.604,3.626 l 0,2.604 c 0.195999,0.028 0.322,0.042 0.49,0.042 0.447999,0 0.518,-0.098 0.518,-0.462 l 0,-2.198 c 1.903998,-0.154 2.66,-1.19 2.66,-3.64 0,-2.43599 -0.728002,-3.486 -2.66,-3.598 l 0,-3.164 m 0,4.102 c 1.259998,0.126 1.526,0.91 1.526,2.66 0,1.722 -0.336002,2.534 -1.526,2.716 l 0,-5.376 m -1.008,5.376 c -1.175999,-0.154 -1.47,-0.924 -1.47,-2.646 0,-1.736 0.322001,-2.534 1.47,-2.716 l 0,5.362 m -13.915339,-2.688 c 0,3.15 0.770001,3.64 2.198,3.64 1.497998,0 2.31,-1.078 2.31,-3.668 0,-2.85599 -0.714002,-3.612 -2.17,-3.612 -1.469999,0 -2.338,1.07801 -2.338,3.64 m 1.232,0.028 c 0,-2.184 0.434,-2.716 1.064,-2.716 0.657999,0 0.98,0.42 0.98,2.66 0,2.184 -0.434001,2.716 -1.05,2.716 -0.644,0 -0.994,-0.35 -0.994,-2.66 m -12.261371,5.74 c 0,0.392 0.154,0.49 0.546,0.49 0.182,0 0.406,-0.028 0.588,-0.084 l 0,-2.926 c 0.209999,0.21 0.588,0.392 1.106,0.392 0.951999,0 2.086,-0.602 2.086,-4.368 0,-2.296 -0.896002,-2.912 -2.282,-2.912 -0.756,0 -1.470001,0.196 -2.044,0.56 l 0,8.848 m 1.134,-8.162 c 0.237999,-0.168 0.518,-0.266 0.854,-0.266 0.727999,0 1.092,0.378 1.092,2.058 0,2.926 -0.742001,3.234 -1.19,3.234 -0.28,0 -0.56,-0.14 -0.756,-0.462 l 0,-4.564 m -8.3794382,-1.106 -2.954,0 c -1.1339988,0 -1.134,0.014 -1.134,0.266 l 0,6.734 c 1.1339989,0 1.134,0 1.134,-0.224 l 0,-5.712 1.82,0 0,5.936 c 1.1339989,0 1.134,0 1.134,-0.224 l 0,-6.776 m 247.7737952,-31.20228 0,-5.75421 c 0,-5.7978 4.63342,-19.66022 13.90027,-41.58729 l 0,-1.43856 3.48828,0 c -10e-6,1.4822 -4.63343,12.96882 -13.90027,34.45991 l -1.16276,8.56594 0,2.87711 2.32552,0 c 5.67286,-5.10033 13.01938,-16.10744 22.03959,-33.02136 l 1.16277,0 0,1.43855 c -4.65107,12.07516 -6.97658,19.74744 -6.97656,23.01687 0.24662,1.87448 1.02179,2.81172 2.32551,2.81171 l 5.81381,-1.43855 0,1.43855 c -3e-5,0.95905 -1.55037,2.3976 -4.65104,4.31567 -3.87589,1e-5 -5.81382,-3.81434 -5.81381,-11.44305 -8.2098,11.46485 -13.2308,17.19726 -15.06303,17.19727 -1.51511,-0.95904 -2.67787,-1.43856 -3.48828,-1.43856 m -37.10263,4.90416 C 230.70702,119.9136 240.3086,89.486035 247.98988,63.592005 l 2.32551,0 c -1e-5,1.83097 -6.92372,24.651644 -20.77112,68.462085 12.29706,-16.47794 20.3659,-25.98111 24.20656,-28.50952 l 3.48828,0 c -6.4833,5.5363 -14.16456,14.55994 -23.0438,27.07097 l 0,2.87711 c 0,2.17964 1.9203,3.5964 5.76094,4.25027 0.95134,1e-5 4.79197,-0.45771 11.52191,-1.37317 1.47985,0.91546 2.62499,1.37318 3.43543,1.37317 l 0,1.43855 c -1.72655,1e-5 -3.25928,0.47953 -4.5982,1.43856 l -2.32551,-1.43856 c -3.03024,0.95905 -5.70812,1.43856 -8.03363,1.43856 -2.46646,0 -5.54953,-1.89626 -9.24923,-5.68883 -5.17956,14.25476 -8.24501,21.38213 -9.19637,21.38215 l -2.32552,0 0,-1.43856 m -22.72668,-11.70459 0,-3.33483 c 1.51511,-20.70643 6.60659,-31.05965 15.27444,-31.0597 l 1.74414,0 c 0.88086,5e-5 1.77936,1.11165 2.69549,3.33484 l 0,7.78127 c -2.39601,10.94175 -3.594,16.84853 -3.59398,17.72036 0.91609,2.9643 1.81459,4.44646 2.69548,4.44644 l 3.59399,0 c 4.79195,-3.92331 8.68544,-6.51707 11.68046,-7.78126 -5.63766,7.41073 -10.72913,11.11609 -15.27445,11.11609 -2.95976,-0.82825 -4.43964,-3.79254 -4.43962,-8.89288 -4.86246,7.41074 -7.55795,11.11611 -8.08648,11.11611 l -2.69549,0 c -0.95134,0 -2.14934,-1.48215 -3.59398,-4.44644 m 1.797,-5.55806 c 0.59898,5.18753 1.49748,7.78127 2.69548,7.78127 1.12753,-0.26155 3.52351,-3.59637 7.18798,-10.00448 -2.53695,1e-5 -5.53193,-1.85267 -8.98497,-5.55805 l -0.89849,7.78126 m 3.59398,-8.89288 c 1.19799,2.96431 2.99497,4.44646 5.39098,4.44644 4.75673,-6.32089 7.1351,-12.22768 7.13511,-17.72036 l 0,-3.33483 c -4.43963,4e-5 -7.11751,1.85271 -8.03361,5.55804 -1.62082,4e-5 -3.11832,1.85272 -4.49248,5.55806 l 0,5.49265 m -55.17826,84.8093 c 5.84905,-27.24538 15.46825,-47.05817 28.85761,-59.43843 l 12.47324,-48.78006 0.95135,0 c 0.63421,1.56937 0.95133,2.76817 0.95134,3.59638 l -11.52189,40.41029 0.95135,0 18.28705,-19.02815 0.95135,0 c -3e-5,1.70013 -6.41282,9.24163 -19.2384,22.62453 -1.55035,2.48477 -8.28027,19.92178 -20.18975,52.31106 -5.42619,8.71845 -8.61497,13.07769 -9.56635,13.07777 -0.95133,-8e-5 -1.92029,-1.19887 -2.9069,-3.59639 l 0,-1.177 m 4.80961,-3.531 0,2.354 0.95134,0 c 7.54034,-14.03685 14.27025,-31.08152 20.18975,-51.13405 -14.09405,17.26262 -21.14108,33.52262 -21.14109,48.78005 M 190.85607,86.347314 c 0.66945,-1.569269 1.00418,-2.768063 1.0042,-3.596386 l 4.8096,0 0,3.596386 c -2e-5,1.569391 -0.65187,2.354056 -1.95555,2.353997 l -2.85405,0 c -2e-5,-1.569271 -0.33475,-2.353936 -1.0042,-2.353997 m -57.82091,42.698896 0,-3.40022 c 12.36753,-4.49001 21.47581,-6.73501 27.32486,-6.73505 l 1.32132,0 0,-5.10032 -5.44383,-1.63472 c -4.12253,3e-5 -11.85664,2.24505 -23.20235,6.73504 l 0,-1.7001 c 0,-3.3566 7.73411,-6.16831 23.20235,-8.43517 5.46143,5e-5 8.19215,2.81177 8.19218,8.43517 l 8.19218,0 c -5e-5,2.26684 -0.91616,3.40024 -2.74835,3.40021 l 0,-1.70011 c -2.11414,4e-5 -11.20481,7.89028 -27.27201,23.67075 l 9.56635,0 c 4.58054,2e-5 10.02437,-1.1334 16.33149,-3.40022 l 1.37417,3.40022 c -11.8038,3.35663 -19.53792,5.03495 -23.20235,5.03495 l -5.44384,0 -6.818,-1.70012 0,-5.03493 c 5.84903,0 14.0412,-6.19013 24.57653,-18.57042 l -1.37417,0 c -8.94975,2e-5 -16.2258,3.37844 -21.82819,10.13525 -1.83222,3e-5 -2.74834,-1.13338 -2.74834,-3.40021 M 24.211361,86.347314 c 2.184602,-5.797741 17.036208,-14.538038 44.554863,-26.220916 8.914467,-2.74624 15.979111,-4.119403 21.193951,-4.119495 l 3.329722,0 c 19.379273,9.2e-5 30.901163,7.803149 34.565693,23.409196 l 0,2.811719 c -7e-5,26.111982 -22.28629,47.712062 -66.858719,64.800312 -1.479888,0 -2.219826,1.83089 -2.219815,5.49266 l -2.272668,0 c -9e-6,-2.3104 -0.739946,-4.59901 -2.219816,-6.86582 l 0,-1.43855 2.219816,0 0,-16.54337 1.16276,-6.86583 -1.16276,0 c 3.171153,-35.833009 6.148521,-53.749527 8.932113,-53.749607 1.479859,0.261635 2.219796,1.177079 2.219816,2.74633 l 0,5.492661 c -4.40441,7.2e-5 -7.364161,22.97332 -8.879261,68.919816 l 1.109907,0 c 26.919627,-8.58773 46.598447,-22.36296 59.036507,-41.32574 4.4748,-8.849229 6.71223,-15.279122 6.71231,-19.289697 -8e-5,-11.333985 -7.06472,-19.158839 -21.19395,-23.474585 -5.073915,-0.915354 -9.161193,-1.373076 -12.261843,-1.373165 -16.278669,8.9e-5 -36.327457,7.824943 -60.14642,23.474585 1.6e-5,0.61036 -1.867445,2.441246 -5.602391,5.492661 L 24.211361,86.347314 M 295.58365,29.36789 c -10.77608,0 -14.50515,7.955653 -14.50515,21.215037 l 0,23.612629 c 0,13.259386 3.72907,21.57831 14.50515,21.57831 10.68798,0 14.50514,-8.500559 14.50514,-21.57831 l 0,-23.612629 c 0,-13.07775 -3.81716,-21.215037 -14.50514,-21.215037 m 0,7.628695 c 5.63761,0 6.9883,4.286606 6.9883,11.261408 l 0,28.262499 c 0,6.9748 -1.35069,11.624679 -6.9883,11.624679 -5.63762,0 -6.98831,-4.649879 -6.98831,-11.624679 l 0,-28.262499 c 0,-6.974802 1.35069,-11.261408 6.98831,-11.261408 m -26.42637,58.123392 5.344,0 0,-65.098199 -7.51684,0 0,40.250449 -13.15446,-40.250449 -5.63763,0 0,65.098199 7.51684,0 0,-43.301927 13.44809,43.301927 m -44.7193,-16.274549 9.39604,0 2.81882,16.274549 7.51683,0 -11.27525,-65.098199 -7.51683,0 -11.27525,65.098199 7.51682,0 2.81882,-16.274549 m 8.45644,-6.974807 -7.51683,0 3.75841,-27.899229 3.75842,27.899229 m -43.42734,23.249356 5.63763,0 7.51683,-51.366548 0,51.366548 7.51684,0 0,-65.098199 -10.39438,0 -7.45811,49.840809 -7.4581,-49.840809 -10.39438,0 0,65.098199 7.51683,0 0,-51.366548 7.51684,51.366548 m -38.78804,-16.274549 9.39604,0 2.81881,16.274549 7.51684,0 -11.27525,-65.098199 -7.51684,0 -11.27525,65.098199 7.51684,0 2.81881,-16.274549 m 8.45644,-6.974807 -7.51684,0 3.75842,-27.899229 3.75842,27.899229"
         inkscape:connector-curvature="0" />
    </g>
  </g>
</svg>
